<svg viewBox="95.03999999999999 399.6 894.24 289.44" xml:space="preserve" version="1.1" xmlns:xlink="http://www.w3.org/1999/xlink" xmlns="http://www.w3.org/2000/svg" style="max-height: 500px" width="894.24" height="289.44">
<desc>Created with Fabric.js 5.2.4</desc>
<defs>
</defs>
<g id="7def0c23-8464-48db-970f-e84cd5cc4d97" transform="matrix(1 0 0 1 540 540)">
<rect height="1080" width="1080" ry="0" rx="0" y="-540" x="-540" style="stroke: none; stroke-width: 1; stroke-dasharray: none; stroke-linecap: butt; stroke-dashoffset: 0; stroke-linejoin: miter; stroke-miterlimit: 4; fill: rgb(255,255,255); fill-rule: nonzero; opacity: 1; visibility: hidden;"/>
</g>
<g id="0e1601ed-0e32-4b97-9e2a-6579aa014070" transform="matrix(1 0 0 1 540 540)">
</g>
<g transform="matrix(1 0 0 1 540 540)">
<rect height="1080" width="1080" ry="0" rx="0" y="-540" x="-540" style="stroke: none; stroke-width: 1; stroke-dasharray: none; stroke-linecap: butt; stroke-dashoffset: 0; stroke-linejoin: miter; stroke-miterlimit: 4; fill: rgb(1,40,71); fill-opacity: 0; fill-rule: nonzero; opacity: 1;"/>
</g>
<g transform="matrix(1 0 0 1 180.47 491.1)">
<polygon points="64.06,-31.13 64.06,-63.03 -64.06,-63.03 -64.06,63.03 -32.16,63.03 -32.16,28.23 22.9,28.23 22.9,-3.67 -32.16,-3.67 -32.16,-31.13" style="stroke: none; stroke-width: 1; stroke-dasharray: none; stroke-linecap: butt; stroke-dashoffset: 0; stroke-linejoin: miter; stroke-miterlimit: 4; fill: rgb(255,255,255); fill-rule: nonzero; opacity: 1;"/>
</g>
<g transform="matrix(1 0 0 1 276.69 570.09)">
<polygon points="64.06,-82.33 -64.06,-82.33 -64.06,-50.43 4.64,-50.43 4.64,82.32 36.55,82.32 36.55,-50.43 64.06,-50.43" style="stroke: none; stroke-width: 1; stroke-dasharray: none; stroke-linecap: butt; stroke-dashoffset: 0; stroke-linejoin: miter; stroke-miterlimit: 4; fill: rgb(255,255,255); fill-rule: nonzero; opacity: 1;"/>
</g>
<g transform="matrix(1 0 0 1 186.13 595.3)">
<path stroke-linecap="round" d="M 254.31 632.35 C 246.57 632.35 240.11 637.89 238.66 645.21 L 128.7 645.21 L 168.82999999999998 605.08 L 254.81 605.08 L 254.81 553.6500000000001 C 260.73 552.0600000000001 265.1 546.6600000000001 265.1 540.2500000000001 C 265.1 532.5900000000001 258.87 526.3600000000001 251.21000000000004 526.3600000000001 C 243.55000000000004 526.3600000000001 237.32000000000005 532.5900000000001 237.32000000000005 540.2500000000001 C 237.32000000000005 546.6600000000001 241.69000000000005 552.0600000000001 247.61000000000004 553.6500000000001 L 247.61000000000004 597.8800000000001 L 204.63000000000005 597.8800000000001 L 204.63000000000005 574.4900000000001 C 208.41000000000005 572.9700000000001 211.08000000000004 569.2700000000001 211.08000000000004 564.9500000000002 C 211.08000000000004 559.2700000000002 206.47000000000003 554.6600000000002 200.79000000000005 554.6600000000002 C 195.11000000000004 554.6600000000002 190.50000000000006 559.2700000000002 190.50000000000006 564.9500000000002 C 190.50000000000006 569.4600000000002 193.40000000000006 573.2700000000002 197.43000000000006 574.6700000000002 L 197.43000000000006 597.8800000000002 L 165.85000000000008 597.8800000000002 L 123.61000000000007 640.1200000000002 L 123.61000000000007 594.4300000000003 C 131.82000000000008 592.7600000000003 138.02000000000007 585.4800000000002 138.02000000000007 576.7800000000003 C 138.02000000000007 566.8500000000004 129.94000000000005 558.7700000000003 120.01000000000006 558.7700000000003 C 110.08000000000007 558.7700000000003 102 566.84 102 576.77 C 102 585.47 108.2 592.74 116.41 594.42 L 116.41 652.41 L 238.92000000000002 652.41 C 240.74 659.2099999999999 246.94000000000003 664.24 254.31 664.24 C 263.11 664.24 270.26 657.08 270.26 648.29 C 270.26 639.5 263.1 632.35 254.31 632.35 z M 244.53 540.24 C 244.53 536.55 247.53 533.55 251.22 533.55 C 254.91 533.55 257.91 536.55 257.91 540.24 C 257.91 543.9300000000001 254.91000000000003 546.9300000000001 251.22000000000003 546.9300000000001 C 247.53000000000003 546.9300000000001 244.53 543.93 244.53 540.24 z M 109.2 576.77 C 109.2 570.81 114.05 565.96 120.01 565.96 C 125.97 565.96 130.82 570.8100000000001 130.82 576.77 C 130.82 582.73 125.97 587.5799999999999 120.00999999999999 587.5799999999999 C 114.05 587.58 109.2 582.73 109.2 576.77 z M 254.31 657.04 C 249.49 657.04 245.56 653.12 245.56 648.29 C 245.56 643.4699999999999 249.48 639.54 254.31 639.54 C 259.13 639.54 263.06 643.4599999999999 263.06 648.29 C 263.05 653.12 259.13 657.04 254.31 657.04 z" transform="translate(-186.13, -595.3)" style="stroke: none; stroke-width: 1; stroke-dasharray: none; stroke-linecap: butt; stroke-dashoffset: 0; stroke-linejoin: miter; stroke-miterlimit: 4; fill: rgb(140,198,63); fill-rule: nonzero; opacity: 1;"/>
</g>
<g transform="matrix(1 0 0 1 300.87 447.39)">
<path stroke-linecap="round" d="M 340.75 445.06 L 340.75 428.1 L 283.72 428.1 C 282.08000000000004 421.04 275.75 415.75 268.19000000000005 415.75 C 259.39000000000004 415.75 252.24000000000007 422.91 252.24000000000007 431.7 C 252.24000000000007 440.48999999999995 259.4000000000001 447.65 268.19000000000005 447.65 C 275.75000000000006 447.65 282.08000000000004 442.35999999999996 283.72 435.29999999999995 L 308.18 435.29999999999995 L 308.18 466.16999999999996 L 268.5 466.16999999999996 C 267.09 462.84 263.8 460.50999999999993 259.96 460.50999999999993 C 254.83999999999997 460.50999999999993 250.7 464.6599999999999 250.7 469.7699999999999 C 250.7 474.88999999999993 254.85 479.0299999999999 259.96 479.0299999999999 C 263.79999999999995 479.0299999999999 267.09 476.69999999999993 268.5 473.3699999999999 L 315.38 473.3699999999999 L 315.38 435.2899999999999 L 333.54 435.2899999999999 L 333.54 445.0399999999999 C 327.62 446.6299999999999 323.25 452.0299999999999 323.25 458.4399999999999 C 323.25 466.0999999999999 329.48 472.32999999999987 337.14 472.32999999999987 C 344.8 472.32999999999987 351.03 466.09999999999985 351.03 458.4399999999999 C 351.04 452.05 346.67 446.65 340.75 445.06 z M 268.2 440.45 C 263.38 440.45 259.45 436.53 259.45 431.7 C 259.45 426.87 263.37 422.95 268.2 422.95 C 273.02 422.95 276.95 426.87 276.95 431.7 C 276.95 436.53 273.02 440.45 268.2 440.45 z M 337.15 465.15 C 333.46 465.15 330.46 462.15 330.46 458.46 C 330.46 454.77 333.46 451.77 337.15 451.77 C 340.84 451.77 343.84 454.77 343.84 458.46 C 343.84 462.15 340.84 465.15 337.15 465.15 z" transform="translate(-300.87, -447.39)" style="stroke: none; stroke-width: 1; stroke-dasharray: none; stroke-linecap: butt; stroke-dashoffset: 0; stroke-linejoin: miter; stroke-miterlimit: 4; fill: rgb(41,171,226); fill-rule: nonzero; opacity: 1;"/>
</g>
<g transform="matrix(1 0 0 1 400.22 498.92)">
<polygon points="-25.81,37.62 -9.02,37.62 -9.02,8.91 21.63,8.91 21.63,-6.87 -9.02,-6.87 -9.02,-21.74 25.8,-21.74 25.8,-37.62 -25.81,-37.62" style="stroke: none; stroke-width: 1; stroke-dasharray: none; stroke-linecap: butt; stroke-dashoffset: 0; stroke-linejoin: miter; stroke-miterlimit: 4; fill: rgb(140,198,63); fill-rule: nonzero; opacity: 1;"/>
</g>
<g transform="matrix(1 0 0 1 443.38 508.64)">
<rect height="55.79" width="15.98" ry="0" rx="0" y="-27.895" x="-7.99" style="stroke: none; stroke-width: 1; stroke-dasharray: none; stroke-linecap: butt; stroke-dashoffset: 0; stroke-linejoin: miter; stroke-miterlimit: 4; fill: rgb(140,198,63); fill-rule: nonzero; opacity: 1;"/>
</g>
<g transform="matrix(1 0 0 1 443.48 465.58)">
<path stroke-linecap="round" d="M 443.53 456.11 C 438.14 456.11 433.96 460.18 433.96 465.58000000000004 C 433.96 470.98 438.13 475.05000000000007 443.53 475.05000000000007 C 448.82 475.05000000000007 453 470.9800000000001 453 465.58000000000004 C 453 460.18 448.83 456.11 443.53 456.11 z" transform="translate(-443.48, -465.58)" style="stroke: none; stroke-width: 1; stroke-dasharray: none; stroke-linecap: butt; stroke-dashoffset: 0; stroke-linejoin: miter; stroke-miterlimit: 4; fill: rgb(140,198,63); fill-rule: nonzero; opacity: 1;"/>
</g>
<g transform="matrix(1 0 0 1 506.24 499.48)">
<path stroke-linecap="round" d="M 539.63 523.4 C 534.64 523.4 532.2 520.24 532.2 513.93 L 532.2 493.97999999999996 L 550.12 493.97999999999996 L 550.12 480.74999999999994 L 532.2 480.74999999999994 L 532.2 461 L 516.32 461 L 516.32 480.75 L 507.36000000000007 480.75 L 484.05000000000007 480.75 L 484.05000000000007 461 L 468.1700000000001 461 L 468.1700000000001 480.75 L 459.2100000000001 480.75 L 459.2100000000001 493.98 L 468.0700000000001 493.98 L 468.0700000000001 515.46 C 468.0700000000001 530.4200000000001 474.6900000000001 537.96 488.0200000000001 537.96 C 494.6400000000001 537.96 500.3400000000001 536.4300000000001 505.1200000000001 533.38 L 500.6400000000001 520.65 C 497.0800000000001 522.48 494.0200000000001 523.4 491.4800000000001 523.4 C 486.49000000000007 523.4 484.05000000000007 520.24 484.05000000000007 513.93 L 484.05000000000007 493.97999999999996 L 507.36000000000007 493.97999999999996 L 516.22 493.97999999999996 L 516.22 515.4599999999999 C 516.22 530.42 522.84 537.9599999999999 536.1700000000001 537.9599999999999 C 542.7900000000001 537.9599999999999 548.4900000000001 536.43 553.2700000000001 533.3799999999999 L 548.7900000000001 520.6499999999999 C 545.23 522.49 542.18 523.4 539.63 523.4 z" transform="translate(-506.24, -499.48)" style="stroke: none; stroke-width: 1; stroke-dasharray: none; stroke-linecap: butt; stroke-dashoffset: 0; stroke-linejoin: miter; stroke-miterlimit: 4; fill: rgb(140,198,63); fill-rule: nonzero; opacity: 1;"/>
</g>
<g transform="matrix(1 0 0 1 585.04 508.54)">
<path stroke-linecap="round" d="M 585.65 479.32 C 576.89 479.32 569.77 482.07 564.37 487.67 C 558.97 493.17 556.23 500.09000000000003 556.23 508.54 C 556.23 516.79 558.88 523.71 564.07 529.3100000000001 C 569.36 534.9100000000001 576.9000000000001 537.7600000000001 586.7700000000001 537.7600000000001 C 596.2400000000001 537.7600000000001 604.3800000000001 535.2100000000002 611.2 530.0200000000001 L 604.8900000000001 519.1300000000001 C 599.6000000000001 522.69 593.7900000000001 524.5300000000001 587.4800000000001 524.5300000000001 C 579.3300000000002 524.5300000000001 574.2400000000001 521.07 572.3100000000002 514.0400000000001 L 613.3400000000001 514.0400000000001 C 613.6500000000001 511.49000000000007 613.8500000000001 509.25000000000006 613.8500000000001 507.32000000000005 C 613.8500000000001 498.6700000000001 611.2000000000002 491.85 605.9100000000001 486.86000000000007 C 600.61 481.87 593.9 479.32 585.65 479.32 z M 572.21 502.63 C 573.94 496.11 579.13 492.25 585.6500000000001 492.25 C 592.2700000000001 492.25 596.95 496.22 598.4800000000001 502.63 L 572.21 502.63 z" transform="translate(-585.04, -508.54)" style="stroke: none; stroke-width: 1; stroke-dasharray: none; stroke-linecap: butt; stroke-dashoffset: 0; stroke-linejoin: miter; stroke-miterlimit: 4; fill: rgb(140,198,63); fill-rule: nonzero; opacity: 1;"/>
</g>
<g transform="matrix(1 0 0 1 650.23 498.51)">
<path stroke-linecap="round" d="M 664.04 459.06 L 664.04 486.14 C 659.66 481.56 654.27 479.32 647.9499999999999 479.32 C 640.1099999999999 479.32 633.5999999999999 482.17 628.3 487.77 C 623.1099999999999 493.37 620.4599999999999 500.28999999999996 620.4599999999999 508.64 C 620.4599999999999 517.09 623.1099999999999 524.01 628.3 529.61 C 633.5899999999999 535.21 640.1099999999999 537.96 647.9499999999999 537.96 C 654.67 537.96 660.17 535.52 664.54 530.5300000000001 L 664.54 536.5400000000001 L 680.01 536.5400000000001 L 680.01 459.07000000000005 L 664.04 459.07000000000005 z M 660.78 519.13 C 658.13 521.98 654.77 523.41 650.6 523.41 C 646.4300000000001 523.41 643.07 521.99 640.32 519.13 C 637.6700000000001 516.28 636.35 512.72 636.35 508.54 C 636.35 504.47 637.6700000000001 501.01000000000005 640.32 498.16 C 643.07 495.31 646.4300000000001 493.88000000000005 650.6 493.88000000000005 C 654.77 493.88000000000005 658.13 495.31000000000006 660.78 498.16 C 663.53 501.01000000000005 664.85 504.47 664.85 508.54 C 664.85 512.71 663.53 516.28 660.78 519.13 z" transform="translate(-650.23, -498.51)" style="stroke: none; stroke-width: 1; stroke-dasharray: none; stroke-linecap: butt; stroke-dashoffset: 0; stroke-linejoin: miter; stroke-miterlimit: 4; fill: rgb(140,198,63); fill-rule: nonzero; opacity: 1;"/>
</g>
<g transform="matrix(1 0 0 1 676.2 601.75)">
<path stroke-linecap="round" d="M 395.68 569.57 L 374.4 569.57 L 374.4 553.38 L 433.75 553.38 L 433.75 569.57 L 412.57 569.57 L 412.57 628.62 L 395.67 628.62 L 395.67 569.57 z M 487.1 606.12 L 446.07000000000005 606.12 C 448.00000000000006 613.14 453.09000000000003 616.61 461.24000000000007 616.61 C 467.55000000000007 616.61 473.36000000000007 614.78 478.6500000000001 611.21 L 484.9600000000001 622.1 C 478.1400000000001 627.2900000000001 470.0000000000001 629.84 460.5300000000001 629.84 C 450.6600000000001 629.84 443.12000000000006 626.99 437.8300000000001 621.39 C 432.6400000000001 615.79 429.9900000000001 608.87 429.9900000000001 600.62 C 429.9900000000001 592.17 432.7400000000001 585.25 438.1300000000001 579.75 C 443.5300000000001 574.15 450.6500000000001 571.4 459.4100000000001 571.4 C 467.6600000000001 571.4 474.37000000000006 573.9499999999999 479.6700000000001 578.93 C 484.9600000000001 583.92 487.61000000000007 590.7399999999999 487.61000000000007 599.39 C 487.61 601.34 487.41 603.58 487.1 606.12 z M 445.98 594.72 L 472.25 594.72 C 470.72 588.3100000000001 466.04 584.34 459.42 584.34 C 452.9 584.34 447.71 588.2 445.98 594.72 z M 502.48 621.7 C 496.98 616.2 494.23 609.1800000000001 494.23 600.63 C 494.23 592.08 496.98 585.05 502.58000000000004 579.66 C 508.18000000000006 574.16 515.3100000000001 571.41 524.1600000000001 571.41 C 535.6600000000001 571.41 545.84 577.11 550.4300000000001 587.29 L 537.7 594.11 C 534.44 588.82 530.0600000000001 586.17 524.47 586.17 C 520.3000000000001 586.17 516.94 587.5999999999999 514.19 590.3399999999999 C 511.44000000000005 593.0899999999999 510.12000000000006 596.55 510.12000000000006 600.6199999999999 C 510.12000000000006 604.7899999999998 511.44000000000005 608.3599999999999 514.09 611.1099999999999 C 516.84 613.8599999999999 520.2 615.18 524.27 615.18 C 529.87 615.18 535.06 611.92 537.4 607.3399999999999 L 550.3299999999999 614.9799999999999 C 545.4399999999999 624.0399999999998 535.5699999999999 629.8399999999999 523.8599999999999 629.8399999999999 C 515.1 629.84 507.97 627.09 502.48 621.7 z M 558.57 628.62 L 558.57 551.15 L 574.1500000000001 551.15 L 574.1500000000001 580.27 C 577.1000000000001 575.28 583.6200000000001 571.31 591.7600000000001 571.31 C 597.7700000000001 571.31 602.8600000000001 573.3499999999999 607.0300000000001 577.3199999999999 C 611.2 581.29 613.34 587.0899999999999 613.34 594.53 L 613.34 628.63 L 597.36 628.63 L 597.36 598.7 C 597.36 590.5600000000001 593.19 585.97 586.57 585.97 C 579.34 585.97 574.5600000000001 591.26 574.5600000000001 599.1 L 574.5600000000001 628.62 L 558.57 628.62 z M 624.94 628.62 L 624.94 572.83 L 640.5200000000001 572.83 L 640.5200000000001 580.57 C 643.4700000000001 575.2800000000001 650.0900000000001 571.3100000000001 658.1300000000001 571.3100000000001 C 664.1400000000001 571.3100000000001 669.3300000000002 573.35 673.5000000000001 577.32 C 677.6700000000001 581.2900000000001 679.8100000000001 587.09 679.8100000000001 594.5300000000001 L 679.8100000000001 628.6300000000001 L 663.83 628.6300000000001 L 663.83 598.7000000000002 C 663.83 590.5600000000002 659.5500000000001 585.9700000000001 652.94 585.9700000000001 C 645.71 585.9700000000001 640.9300000000001 591.2600000000001 640.9300000000001 599.1000000000001 L 640.9300000000001 628.6200000000001 L 624.94 628.6200000000001 z M 696.92 621.7 C 691.3199999999999 616 688.5699999999999 608.97 688.5699999999999 600.73 C 688.5699999999999 592.48 691.3199999999999 585.46 696.92 579.86 C 702.52 574.16 709.75 571.3100000000001 718.5999999999999 571.3100000000001 C 727.4599999999999 571.3100000000001 734.79 574.1600000000001 740.3899999999999 579.86 C 745.9899999999999 585.46 748.8399999999999 592.48 748.8399999999999 600.73 C 748.8399999999999 608.98 745.9899999999999 616 740.3899999999999 621.7 C 734.7899999999998 627.3000000000001 727.4599999999999 630.1500000000001 718.5999999999999 630.1500000000001 C 709.75 630.15 702.52 627.3 696.92 621.7 z M 728.68 590.44 C 725.93 587.59 722.5699999999999 586.1600000000001 718.5999999999999 586.1600000000001 C 714.6299999999999 586.1600000000001 711.2699999999999 587.59 708.5199999999999 590.44 C 705.7699999999999 593.19 704.4499999999998 596.6500000000001 704.4499999999998 600.62 C 704.4499999999998 604.79 705.7699999999999 608.26 708.5199999999999 611.11 C 711.2699999999999 613.86 714.6299999999999 615.28 718.5999999999999 615.28 C 722.5699999999999 615.28 725.93 613.85 728.68 611.11 C 731.43 608.26 732.8499999999999 604.8000000000001 732.8499999999999 600.62 C 732.86 596.65 731.43 593.19 728.68 590.44 z M 774.19 628.62 L 758.21 628.62 L 758.21 551.15 L 774.19 551.15 L 774.19 628.62 z M 792 621.7 C 786.4 616 783.65 608.97 783.65 600.73 C 783.65 592.48 786.4 585.46 792 579.86 C 797.6 574.16 804.83 571.3100000000001 813.68 571.3100000000001 C 822.54 571.3100000000001 829.87 574.1600000000001 835.4699999999999 579.86 C 841.0699999999999 585.46 843.92 592.48 843.92 600.73 C 843.92 608.98 841.0699999999999 616 835.4699999999999 621.7 C 829.8699999999999 627.3000000000001 822.54 630.1500000000001 813.68 630.1500000000001 C 804.83 630.15 797.6 627.3 792 621.7 z M 823.77 590.44 C 821.02 587.59 817.66 586.1600000000001 813.6899999999999 586.1600000000001 C 809.7199999999999 586.1600000000001 806.3599999999999 587.59 803.6099999999999 590.44 C 800.8599999999999 593.19 799.5399999999998 596.6500000000001 799.5399999999998 600.62 C 799.5399999999998 604.79 800.8599999999999 608.26 803.6099999999999 611.11 C 806.3599999999999 613.86 809.7199999999999 615.28 813.6899999999999 615.28 C 817.66 615.28 821.02 613.85 823.77 611.11 C 826.52 608.26 827.9399999999999 604.8000000000001 827.9399999999999 600.62 C 827.94 596.65 826.52 593.19 823.77 590.44 z M 895.54 572.83 L 910.0999999999999 572.83 L 910.0999999999999 623.12 C 910.0999999999999 632.08 907.1499999999999 639.2 901.2399999999999 644.4 C 895.4399999999999 649.6899999999999 887.8999999999999 652.34 878.8399999999999 652.34 C 869.17 652.34 860.41 649.59 852.78 643.99 L 858.89 632.1800000000001 C 865.3 636.5600000000001 871.8199999999999 638.7 878.23 638.7 C 888.82 638.7 894.82 632.59 894.82 624.34 L 894.82 622.2 C 890.6500000000001 626.58 885.1500000000001 628.72 878.33 628.72 C 870.08 628.72 863.47 626.07 858.2700000000001 620.6800000000001 C 853.08 615.2800000000001 850.5300000000001 608.46 850.5300000000001 600.22 C 850.5300000000001 591.77 853.2800000000001 584.85 858.6800000000001 579.45 C 864.08 574.0500000000001 870.9000000000001 571.4100000000001 878.94 571.4100000000001 C 885.5600000000001 571.4100000000001 891.1600000000001 573.7500000000001 895.5300000000001 578.33 L 895.5300000000001 572.83 z M 880.88 586.07 C 876.81 586.07 873.45 587.3900000000001 870.7 590.1400000000001 C 867.95 592.7900000000001 866.63 596.1500000000001 866.63 600.32 C 866.63 604.49 867.95 607.96 870.7 610.7 C 873.45 613.45 876.8100000000001 614.87 880.88 614.87 C 884.95 614.87 888.31 613.55 890.96 610.8 C 893.71 608.05 895.0300000000001 604.49 895.0300000000001 600.31 C 895.03 592.07 889.02 586.07 880.88 586.07 z M 960.69 572.83 L 978 572.83 L 955.91 630.1500000000001 C 950.2099999999999 644.9100000000001 942.67 652.3400000000001 930.76 652.3400000000001 C 926.18 652.3400000000001 922.41 651.3200000000002 919.46 649.3900000000001 L 922.4100000000001 636.1600000000001 C 924.8500000000001 637.4800000000001 927.3000000000001 638.09 929.6400000000001 638.09 C 934.0200000000001 638.09 937.6800000000001 635.24 940.4300000000001 629.5400000000001 L 941.1400000000001 627.9100000000001 L 916.8100000000001 572.83 L 935.24 572.83 L 948.6800000000001 607.34 L 960.69 572.83 z" transform="translate(-676.2, -601.75)" style="stroke: none; stroke-width: 1; stroke-dasharray: none; stroke-linecap: butt; stroke-dashoffset: 0; stroke-linejoin: miter; stroke-miterlimit: 4; fill: rgb(41,171,226); fill-rule: nonzero; opacity: 1;"/>
</g>
</svg>