<svg xmlns="http://www.w3.org/2000/svg" xmlns:xlink="http://www.w3.org/1999/xlink" version="1.1" x="0px" y="0px" style="enable-background:new 0 0 1080 1080;" xml:space="preserve" viewBox="102 415.75 876 248.49">
<style type="text/css">
	.st0{fill:#012847;}
	.st1{fill:#8CC63F;}
	.st2{fill:#29ABE2;}
	.st3{fill:#FFFFFF;}
</style>
<g id="Layer_2">
</g>
<g id="Layer_1">
	<g>
		<g>
			<polygon class="st0" points="244.53,459.97 244.53,428.07 116.41,428.07 116.41,554.13 148.31,554.13 148.31,519.33      203.37,519.33 203.37,487.43 148.31,487.43 148.31,459.97    "/>
			<polygon class="st0" points="340.75,487.76 212.63,487.76 212.63,519.66 281.33,519.66 281.33,652.41 313.24,652.41      313.24,519.66 340.75,519.66    "/>
			<path class="st1" d="M254.31,632.35c-7.74,0-14.2,5.54-15.65,12.86H128.7l40.13-40.13h85.98v-51.43     c5.92-1.59,10.29-6.99,10.29-13.4c0-7.66-6.23-13.89-13.89-13.89c-7.66,0-13.89,6.23-13.89,13.89c0,6.41,4.37,11.81,10.29,13.4     v44.23h-42.98v-23.39c3.78-1.52,6.45-5.22,6.45-9.54c0-5.68-4.61-10.29-10.29-10.29c-5.68,0-10.29,4.61-10.29,10.29     c0,4.51,2.9,8.32,6.93,9.72v23.21h-31.58l-42.24,42.24v-45.69c8.21-1.67,14.41-8.95,14.41-17.65c0-9.93-8.08-18.01-18.01-18.01     S102,566.84,102,576.77c0,8.7,6.2,15.97,14.41,17.65v57.99h122.51c1.82,6.8,8.02,11.83,15.39,11.83c8.8,0,15.95-7.16,15.95-15.95     C270.26,639.5,263.1,632.35,254.31,632.35z M244.53,540.24c0-3.69,3-6.69,6.69-6.69s6.69,3,6.69,6.69s-3,6.69-6.69,6.69     S244.53,543.93,244.53,540.24z M109.2,576.77c0-5.96,4.85-10.81,10.81-10.81c5.96,0,10.81,4.85,10.81,10.81     c0,5.96-4.85,10.81-10.81,10.81C114.05,587.58,109.2,582.73,109.2,576.77z M254.31,657.04c-4.82,0-8.75-3.92-8.75-8.75     c0-4.82,3.92-8.75,8.75-8.75c4.82,0,8.75,3.92,8.75,8.75C263.05,653.12,259.13,657.04,254.31,657.04z"/>
			<path class="st2" d="M340.75,445.06V428.1h-57.03c-1.64-7.06-7.97-12.35-15.53-12.35c-8.8,0-15.95,7.16-15.95,15.95     s7.16,15.95,15.95,15.95c7.56,0,13.89-5.29,15.53-12.35h24.46v30.87H268.5c-1.41-3.33-4.7-5.66-8.54-5.66     c-5.12,0-9.26,4.15-9.26,9.26c0,5.12,4.15,9.26,9.26,9.26c3.84,0,7.13-2.33,8.54-5.66h46.88v-38.08h18.16v9.75     c-5.92,1.59-10.29,6.99-10.29,13.4c0,7.66,6.23,13.89,13.89,13.89c7.66,0,13.89-6.23,13.89-13.89     C351.04,452.05,346.67,446.65,340.75,445.06z M268.2,440.45c-4.82,0-8.75-3.92-8.75-8.75s3.92-8.75,8.75-8.75     c4.82,0,8.75,3.92,8.75,8.75S273.02,440.45,268.2,440.45z M337.15,465.15c-3.69,0-6.69-3-6.69-6.69c0-3.69,3-6.69,6.69-6.69     c3.69,0,6.69,3,6.69,6.69C343.84,462.15,340.84,465.15,337.15,465.15z"/>
		</g>
		<g>
			<g>
				<polygon class="st1" points="374.41,536.54 391.2,536.54 391.2,507.83 421.85,507.83 421.85,492.05 391.2,492.05 391.2,477.18       426.02,477.18 426.02,461.3 374.41,461.3     "/>
				<rect x="435.39" y="480.75" class="st1" width="15.98" height="55.79"/>
				<path class="st1" d="M443.53,456.11c-5.39,0-9.57,4.07-9.57,9.47c0,5.4,4.17,9.47,9.57,9.47c5.29,0,9.47-4.07,9.47-9.47      C453,460.18,448.83,456.11,443.53,456.11z"/>
				<path class="st1" d="M539.63,523.4c-4.99,0-7.43-3.16-7.43-9.47v-19.95h17.92v-13.23H532.2V461h-15.88v19.75h-8.96h-23.31V461      h-15.88v19.75h-8.96v13.23h8.86v21.48c0,14.96,6.62,22.5,19.95,22.5c6.62,0,12.32-1.53,17.1-4.58l-4.48-12.73      c-3.56,1.83-6.62,2.75-9.16,2.75c-4.99,0-7.43-3.16-7.43-9.47v-19.95h23.31h8.86v21.48c0,14.96,6.62,22.5,19.95,22.5      c6.62,0,12.32-1.53,17.1-4.58l-4.48-12.73C545.23,522.49,542.18,523.4,539.63,523.4z"/>
				<path class="st1" d="M585.65,479.32c-8.76,0-15.88,2.75-21.28,8.35c-5.4,5.5-8.14,12.42-8.14,20.87      c0,8.25,2.65,15.17,7.84,20.77c5.29,5.6,12.83,8.45,22.7,8.45c9.47,0,17.61-2.55,24.43-7.74l-6.31-10.89      c-5.29,3.56-11.1,5.4-17.41,5.4c-8.15,0-13.24-3.46-15.17-10.49h41.03c0.31-2.55,0.51-4.79,0.51-6.72      c0-8.65-2.65-15.47-7.94-20.46C600.61,481.87,593.9,479.32,585.65,479.32z M572.21,502.63c1.73-6.52,6.92-10.38,13.44-10.38      c6.62,0,11.3,3.97,12.83,10.38H572.21z"/>
				<path class="st1" d="M664.04,459.06v27.08c-4.38-4.58-9.77-6.82-16.09-6.82c-7.84,0-14.35,2.85-19.65,8.45      c-5.19,5.6-7.84,12.52-7.84,20.87c0,8.45,2.65,15.37,7.84,20.97c5.29,5.6,11.81,8.35,19.65,8.35c6.72,0,12.22-2.44,16.59-7.43      v6.01h15.47v-77.47H664.04z M660.78,519.13c-2.65,2.85-6.01,4.28-10.18,4.28c-4.17,0-7.53-1.42-10.28-4.28      c-2.65-2.85-3.97-6.41-3.97-10.59c0-4.07,1.32-7.53,3.97-10.38c2.75-2.85,6.11-4.28,10.28-4.28c4.17,0,7.53,1.43,10.18,4.28      c2.75,2.85,4.07,6.31,4.07,10.38C664.85,512.71,663.53,516.28,660.78,519.13z"/>
			</g>
			<path class="st2" d="M395.68,569.57h-21.28v-16.19h59.35v16.19h-21.18v59.05h-16.9V569.57z M487.1,606.12h-41.03     c1.93,7.02,7.02,10.49,15.17,10.49c6.31,0,12.12-1.83,17.41-5.4l6.31,10.89c-6.82,5.19-14.96,7.74-24.43,7.74     c-9.87,0-17.41-2.85-22.7-8.45c-5.19-5.6-7.84-12.52-7.84-20.77c0-8.45,2.75-15.37,8.14-20.87c5.4-5.6,12.52-8.35,21.28-8.35     c8.25,0,14.96,2.55,20.26,7.53c5.29,4.99,7.94,11.81,7.94,20.46C487.61,601.34,487.41,603.58,487.1,606.12z M445.98,594.72h26.27     c-1.53-6.41-6.21-10.38-12.83-10.38C452.9,584.34,447.71,588.2,445.98,594.72z M502.48,621.7c-5.5-5.5-8.25-12.52-8.25-21.07     c0-8.55,2.75-15.58,8.35-20.97c5.6-5.5,12.73-8.25,21.58-8.25c11.5,0,21.68,5.7,26.27,15.88l-12.73,6.82     c-3.26-5.29-7.64-7.94-13.23-7.94c-4.17,0-7.53,1.43-10.28,4.17c-2.75,2.75-4.07,6.21-4.07,10.28c0,4.17,1.32,7.74,3.97,10.49     c2.75,2.75,6.11,4.07,10.18,4.07c5.6,0,10.79-3.26,13.13-7.84l12.93,7.64c-4.89,9.06-14.76,14.86-26.47,14.86     C515.1,629.84,507.97,627.09,502.48,621.7z M558.57,628.62v-77.47h15.58v29.12c2.95-4.99,9.47-8.96,17.61-8.96     c6.01,0,11.1,2.04,15.27,6.01c4.17,3.97,6.31,9.77,6.31,17.21v34.1h-15.98v-29.93c0-8.14-4.17-12.73-10.79-12.73     c-7.23,0-12.01,5.29-12.01,13.13v29.52H558.57z M624.94,628.62v-55.79h15.58v7.74c2.95-5.29,9.57-9.26,17.61-9.26     c6.01,0,11.2,2.04,15.37,6.01c4.17,3.97,6.31,9.77,6.31,17.21v34.1h-15.98v-29.93c0-8.14-4.28-12.73-10.89-12.73     c-7.23,0-12.01,5.29-12.01,13.13v29.52H624.94z M696.92,621.7c-5.6-5.7-8.35-12.73-8.35-20.97c0-8.25,2.75-15.27,8.35-20.87     c5.6-5.7,12.83-8.55,21.68-8.55c8.86,0,16.19,2.85,21.79,8.55c5.6,5.6,8.45,12.62,8.45,20.87c0,8.25-2.85,15.27-8.45,20.97     c-5.6,5.6-12.93,8.45-21.79,8.45C709.75,630.15,702.52,627.3,696.92,621.7z M728.68,590.44c-2.75-2.85-6.11-4.28-10.08-4.28     s-7.33,1.43-10.08,4.28c-2.75,2.75-4.07,6.21-4.07,10.18c0,4.17,1.32,7.64,4.07,10.49c2.75,2.75,6.11,4.17,10.08,4.17     s7.33-1.43,10.08-4.17c2.75-2.85,4.17-6.31,4.17-10.49C732.86,596.65,731.43,593.19,728.68,590.44z M774.19,628.62h-15.98v-77.47     h15.98V628.62z M792,621.7c-5.6-5.7-8.35-12.73-8.35-20.97c0-8.25,2.75-15.27,8.35-20.87c5.6-5.7,12.83-8.55,21.68-8.55     c8.86,0,16.19,2.85,21.79,8.55c5.6,5.6,8.45,12.62,8.45,20.87c0,8.25-2.85,15.27-8.45,20.97c-5.6,5.6-12.93,8.45-21.79,8.45     C804.83,630.15,797.6,627.3,792,621.7z M823.77,590.44c-2.75-2.85-6.11-4.28-10.08-4.28s-7.33,1.43-10.08,4.28     c-2.75,2.75-4.07,6.21-4.07,10.18c0,4.17,1.32,7.64,4.07,10.49c2.75,2.75,6.11,4.17,10.08,4.17s7.33-1.43,10.08-4.17     c2.75-2.85,4.17-6.31,4.17-10.49C827.94,596.65,826.52,593.19,823.77,590.44z M895.54,572.83h14.56v50.29     c0,8.96-2.95,16.08-8.86,21.28c-5.8,5.29-13.34,7.94-22.4,7.94c-9.67,0-18.43-2.75-26.06-8.35l6.11-11.81     c6.41,4.38,12.93,6.52,19.34,6.52c10.59,0,16.59-6.11,16.59-14.36v-2.14c-4.17,4.38-9.67,6.52-16.49,6.52     c-8.25,0-14.86-2.65-20.06-8.04c-5.19-5.4-7.74-12.22-7.74-20.46c0-8.45,2.75-15.37,8.15-20.77c5.4-5.4,12.22-8.04,20.26-8.04     c6.62,0,12.22,2.34,16.59,6.92V572.83z M880.88,586.07c-4.07,0-7.43,1.32-10.18,4.07c-2.75,2.65-4.07,6.01-4.07,10.18     c0,4.17,1.32,7.64,4.07,10.38c2.75,2.75,6.11,4.17,10.18,4.17c4.07,0,7.43-1.32,10.08-4.07c2.75-2.75,4.07-6.31,4.07-10.49     C895.03,592.07,889.02,586.07,880.88,586.07z M960.69,572.83H978l-22.09,57.32c-5.7,14.76-13.24,22.19-25.15,22.19     c-4.58,0-8.35-1.02-11.3-2.95l2.95-13.23c2.44,1.32,4.89,1.93,7.23,1.93c4.38,0,8.04-2.85,10.79-8.55l0.71-1.63l-24.33-55.08     h18.43l13.44,34.51L960.69,572.83z"/>
		</g>
	</g>
</g>
</svg>